<svg width="40" height="35" viewBox="0 0 40 35" fill="none" xmlns="http://www.w3.org/2000/svg">
<g clip-path="url(#clip0_2_75)">
<path d="M35 4.375H4.375V19.6875H35V4.375ZM28.4375 30.625H23.7002L22.9688 28.4375H16.4062L15.6748 30.625H10.9375C9.72754 30.625 8.75 31.6025 8.75 32.8125C8.75 34.0225 9.72754 35 10.9375 35H28.4375C29.6475 35 30.625 34.0225 30.625 32.8125C30.625 31.6025 29.6475 30.625 28.4375 30.625Z" fill="#7ABEC1"/>
<path opacity="0.4" d="M4.375 0C1.96191 0 0 1.96191 0 4.375V24.0625C0 26.4756 1.96191 28.4375 4.375 28.4375H35C37.4131 28.4375 39.375 26.4756 39.375 24.0625V4.375C39.375 1.96191 37.4131 0 35 0H4.375ZM35 4.375V19.6875H4.375V4.375H35Z" fill="#7ABEC1"/>
</g>
<defs>
<clipPath id="clip0_2_75">
<rect width="39.375" height="35" fill="white"/>
</clipPath>
</defs>
</svg>
