<svg width="41" height="45" viewBox="0 0 41 45" fill="none" xmlns="http://www.w3.org/2000/svg">
<g clip-path="url(#clip0_2_44)">
<path d="M20.4463 12.3926C14.8564 12.3926 10.3477 16.9014 10.3477 22.4912C10.3477 28.0811 14.8564 32.5898 20.4463 32.5898C26.0361 32.5898 30.5449 28.0811 30.5449 22.4912C30.5449 16.9014 26.0361 12.3926 20.4463 12.3926ZM20.4463 29.0566C16.834 29.0566 13.8809 26.1123 13.8809 22.4912C13.8809 18.8701 16.8252 15.9258 20.4463 15.9258C24.0674 15.9258 27.0117 18.8701 27.0117 22.4912C27.0117 26.1123 24.0586 29.0566 20.4463 29.0566ZM33.3135 11.9795C33.3135 13.2891 32.2588 14.335 30.958 14.335C29.6484 14.335 28.6025 13.2803 28.6025 11.9795C28.6025 10.6787 29.6572 9.62402 30.958 9.62402C32.2588 9.62402 33.3135 10.6787 33.3135 11.9795ZM40.002 14.3701C39.8525 11.2148 39.1318 8.41992 36.8203 6.11719C34.5176 3.81445 31.7227 3.09375 28.5674 2.93555C25.3154 2.75098 15.5684 2.75098 12.3164 2.93555C9.16992 3.08496 6.375 3.80566 4.06348 6.1084C1.75195 8.41113 1.04004 11.2061 0.881836 14.3613C0.697266 17.6133 0.697266 27.3603 0.881836 30.6123C1.03125 33.7676 1.75195 36.5625 4.06348 38.8652C6.375 41.168 9.16113 41.8887 12.3164 42.0469C15.5684 42.2314 25.3154 42.2314 28.5674 42.0469C31.7227 41.8975 34.5176 41.1768 36.8203 38.8652C39.123 36.5625 39.8438 33.7676 40.002 30.6123C40.1865 27.3603 40.1865 17.6221 40.002 14.3701ZM35.8008 34.1016C35.1152 35.8242 33.7881 37.1514 32.0566 37.8457C29.4639 38.874 23.3115 38.6367 20.4463 38.6367C17.5811 38.6367 11.4199 38.8652 8.83594 37.8457C7.11328 37.1602 5.78613 35.833 5.0918 34.1016C4.06348 31.5088 4.30078 25.3564 4.30078 22.4912C4.30078 19.626 4.07227 13.4648 5.0918 10.8809C5.77734 9.1582 7.10449 7.83105 8.83594 7.13672C11.4287 6.1084 17.5811 6.3457 20.4463 6.3457C23.3115 6.3457 29.4727 6.11719 32.0566 7.13672C33.7793 7.82227 35.1064 9.14941 35.8008 10.8809C36.8291 13.4736 36.5918 19.626 36.5918 22.4912C36.5918 25.3564 36.8291 31.5176 35.8008 34.1016Z" fill="#55919B"/>
</g>
<defs>
<clipPath id="clip0_2_44">
<rect width="39.375" height="45" fill="white" transform="translate(0.75)"/>
</clipPath>
</defs>
</svg>
