<svg width="40" height="45" viewBox="0 0 40 45" fill="none" xmlns="http://www.w3.org/2000/svg">
<g clip-path="url(#clip0_2_48)">
<path d="M36.5625 2.8125H2.80371C1.25684 2.8125 0 4.08691 0 5.65137V39.3486C0 40.9131 1.25684 42.1875 2.80371 42.1875H36.5625C38.1094 42.1875 39.375 40.9131 39.375 39.3486V5.65137C39.375 4.08691 38.1094 2.8125 36.5625 2.8125ZM11.9004 36.5625H6.06445V17.7715H11.9092V36.5625H11.9004ZM8.98242 15.2051C7.11035 15.2051 5.59863 13.6846 5.59863 11.8213C5.59863 9.95801 7.11035 8.4375 8.98242 8.4375C10.8457 8.4375 12.3662 9.95801 12.3662 11.8213C12.3662 13.6934 10.8545 15.2051 8.98242 15.2051ZM33.7764 36.5625H27.9404V27.4219C27.9404 25.2422 27.8965 22.4385 24.9082 22.4385C21.8672 22.4385 21.4014 24.8115 21.4014 27.2637V36.5625H15.5654V17.7715H21.1641V20.3379H21.2432C22.0254 18.8613 23.9326 17.3057 26.7715 17.3057C32.6777 17.3057 33.7764 21.1992 33.7764 26.2617V36.5625Z" fill="#55919B"/>
</g>
<defs>
<clipPath id="clip0_2_48">
<rect width="39.375" height="45" fill="white"/>
</clipPath>
</defs>
</svg>
