<svg width="35" height="35" viewBox="0 0 35 35" fill="none" xmlns="http://www.w3.org/2000/svg">
<g clip-path="url(#clip0_2_78)">
<path d="M27.7607 1.09375L25.0469 3.80762L31.1514 9.91211L33.8721 7.25293C35.1777 5.97461 35.1846 3.87598 33.8994 2.59082L32.3955 1.09375C31.1104 -0.191404 29.0322 -0.184569 27.7539 1.09375H27.7607ZM23.4951 5.35938L13.7061 15.1621C13.2275 15.6406 12.8652 16.2285 12.6533 16.8711L11.0264 21.7451C10.8281 22.333 10.9854 22.9824 11.4229 23.4268C11.8604 23.8711 12.5098 24.0215 13.1045 23.8232L17.9922 22.1895C18.6211 21.9775 19.1953 21.6289 19.667 21.1641L29.5859 11.4502L23.4951 5.35938Z" fill="#7ABEC1"/>
<path opacity="0.4" d="M17.5 0.546875C19.5576 0.546875 21.5332 0.916016 23.3584 1.58594L20.7539 4.21777C19.708 3.96484 18.6211 3.82812 17.5 3.82812C9.94629 3.82812 3.82812 9.94629 3.82812 17.5C3.82812 25.0537 9.94629 31.1719 17.5 31.1719C18.4092 31.1719 19.1406 31.9033 19.1406 32.8125C19.1406 33.7217 18.4092 34.4531 17.5 34.4531C8.13477 34.4531 0.546875 26.8652 0.546875 17.5C0.546875 8.13477 8.13477 0.546875 17.5 0.546875ZM31.1719 17.5C31.1719 16.4062 31.042 15.333 30.7959 14.3145L33.4277 11.6826C34.0908 13.4941 34.4531 15.4561 34.4531 17.5C34.4531 23.2354 29.7979 27.8906 24.0625 27.8906C23.167 27.8906 22.2988 27.7744 21.4648 27.5625C20.5898 27.3369 20.0566 26.4414 20.2822 25.5664C20.5078 24.6914 21.4033 24.1582 22.2783 24.3838C22.8457 24.5273 23.4404 24.6094 24.0557 24.6094C27.9795 24.6094 31.165 21.4238 31.165 17.5H31.1719Z" fill="#7ABEC1"/>
</g>
<defs>
<clipPath id="clip0_2_78">
<rect width="35" height="35" fill="white"/>
</clipPath>
</defs>
</svg>
