<svg width="35" height="35" viewBox="0 0 35 35" fill="none" xmlns="http://www.w3.org/2000/svg">
<g clip-path="url(#clip0_2_81)">
<path d="M17.5 5.46875C18.2252 5.46875 18.9207 5.75684 19.4335 6.26963C19.9463 6.78242 20.2344 7.47792 20.2344 8.20312C20.2344 8.92833 19.9463 9.62383 19.4335 10.1366C18.9207 10.6494 18.2252 10.9375 17.5 10.9375C16.7748 10.9375 16.0793 10.6494 15.5665 10.1366C15.0537 9.62383 14.7656 8.92833 14.7656 8.20312C14.7656 7.47792 15.0537 6.78242 15.5665 6.26963C16.0793 5.75684 16.7748 5.46875 17.5 5.46875ZM8.87989 12.4756C9.23536 11.6416 10.1992 11.2588 11.0332 11.6143L11.8467 11.9629C13.6309 12.7285 15.5518 13.125 17.5 13.125C19.4482 13.125 21.3623 12.7285 23.1533 11.9629L23.9668 11.6143C24.8008 11.2588 25.7647 11.6416 26.1201 12.4756C26.4756 13.3096 26.0928 14.2734 25.2588 14.6289L24.4453 14.9775C23.2627 15.4834 22.0391 15.8594 20.7813 16.0918V19.5166C20.7813 19.8105 20.8291 20.1045 20.9248 20.3779L22.8867 26.2637C23.1738 27.125 22.709 28.0547 21.8477 28.3418C20.9863 28.6289 20.0566 28.1641 19.7695 27.3027L18.1016 22.2988C18.0127 22.0391 17.7734 21.8613 17.5 21.8613C17.2266 21.8613 16.9805 22.0391 16.8984 22.2988L15.2305 27.3027C14.9434 28.1641 14.0137 28.6289 13.1523 28.3418C12.291 28.0547 11.8262 27.125 12.1133 26.2637L14.0752 20.3779C14.1709 20.0977 14.2188 19.8105 14.2188 19.5166V16.0986C12.9609 15.8594 11.7373 15.4902 10.5547 14.9844L9.74122 14.6357C8.90723 14.2803 8.52442 13.3164 8.87989 12.4824V12.4756Z" fill="#7ABEC1"/>
<path opacity="0.4" d="M0 17.5C0 12.8587 1.84374 8.40752 5.12563 5.12563C8.40752 1.84374 12.8587 0 17.5 0C22.1413 0 26.5925 1.84374 29.8744 5.12563C33.1563 8.40752 35 12.8587 35 17.5C35 22.1413 33.1563 26.5925 29.8744 29.8744C26.5925 33.1563 22.1413 35 17.5 35C12.8587 35 8.40752 33.1563 5.12563 29.8744C1.84374 26.5925 0 22.1413 0 17.5ZM11.04 11.6143C10.2061 11.2588 9.24219 11.6416 8.88672 12.4756C8.53125 13.3096 8.91406 14.2734 9.74805 14.6289L10.5615 14.9775C11.7441 15.4834 12.9678 15.8594 14.2256 16.0918V19.5166C14.2256 19.8105 14.1777 20.1045 14.082 20.3779L12.1201 26.2637C11.833 27.125 12.2979 28.0547 13.1592 28.3418C14.0205 28.6289 14.9502 28.1641 15.2373 27.3027L16.9053 22.2988C16.9941 22.0391 17.2334 21.8613 17.5068 21.8613C17.7803 21.8613 18.0264 22.0391 18.1084 22.2988L19.7764 27.3027C20.0635 28.1641 20.9932 28.6289 21.8545 28.3418C22.7158 28.0547 23.1807 27.125 22.8936 26.2637L20.9316 20.3779C20.8359 20.0977 20.7881 19.8105 20.7881 19.5166V16.0986C22.0459 15.8594 23.2695 15.4902 24.4521 14.9844L25.2656 14.6357C26.0996 14.2803 26.4824 13.3164 26.127 12.4824C25.7715 11.6484 24.8076 11.2656 23.9736 11.6211L23.1533 11.9629C21.3691 12.7285 19.4482 13.125 17.5 13.125C15.5518 13.125 13.6377 12.7285 11.8467 11.9629L11.0332 11.6143H11.04ZM17.5 10.9375C18.2252 10.9375 18.9207 10.6494 19.4335 10.1366C19.9463 9.62383 20.2344 8.92833 20.2344 8.20312C20.2344 7.47792 19.9463 6.78242 19.4335 6.26963C18.9207 5.75683 18.2252 5.46875 17.5 5.46875C16.7748 5.46875 16.0793 5.75683 15.5665 6.26963C15.0537 6.78242 14.7656 7.47792 14.7656 8.20312C14.7656 8.92833 15.0537 9.62383 15.5665 10.1366C16.0793 10.6494 16.7748 10.9375 17.5 10.9375Z" fill="#7ABEC1"/>
</g>
<defs>
<clipPath id="clip0_2_81">
<rect width="35" height="35" fill="white"/>
</clipPath>
</defs>
</svg>
