<svg width="40" height="35" viewBox="0 0 40 35" fill="none" xmlns="http://www.w3.org/2000/svg">
<path d="M28.6562 15.5312L21.6494 8.52441L3.15137 27.0293C1.87305 28.3076 1.87305 30.3857 3.15137 31.6709L5.5166 34.0361C6.79492 35.3145 8.87305 35.3145 10.1582 34.0361L28.6562 15.5312Z" fill="#7ABEC1"/>
<path opacity="0.4" d="M16.0439 2.91895L17.0078 0.341797C17.083 0.136719 17.2812 0 17.5 0C17.7188 0 17.917 0.136719 17.9922 0.341797L18.9561 2.91895L21.5332 3.88281C21.7383 3.95801 21.875 4.15625 21.875 4.375C21.875 4.59375 21.7383 4.79199 21.5332 4.86719L18.9561 5.83105L17.9922 8.4082C17.917 8.61328 17.7188 8.75 17.5 8.75C17.2812 8.75 17.083 8.61328 17.0078 8.4082L16.0439 5.83105L13.4668 4.86719C13.2617 4.79199 13.125 4.59375 13.125 4.375C13.125 4.15625 13.2617 3.95801 13.4668 3.88281L16.0439 2.91895ZM36.2236 7.9707L28.6562 15.5312L25.9492 12.8242L33.127 5.64648L31.541 4.05371L24.3633 11.2314L21.6562 8.52441L29.2168 0.963867C30.4951 -0.314453 32.5732 -0.314453 33.8584 0.963867L36.2236 3.3291C37.502 4.60742 37.502 6.68555 36.2236 7.9707ZM0.512695 8.01172L4.375 6.5625L5.82422 2.7002C5.94043 2.39258 6.23438 2.1875 6.5625 2.1875C6.89062 2.1875 7.18457 2.39258 7.30078 2.7002L8.75 6.5625L12.6123 8.01172C12.9199 8.12793 13.125 8.42188 13.125 8.75C13.125 9.07812 12.9199 9.37207 12.6123 9.48828L8.75 10.9375L7.30078 14.7998C7.18457 15.1074 6.89062 15.3125 6.5625 15.3125C6.23438 15.3125 5.94043 15.1074 5.82422 14.7998L4.375 10.9375L0.512695 9.48828C0.205078 9.37207 0 9.07812 0 8.75C0 8.42188 0.205078 8.12793 0.512695 8.01172ZM24.5752 25.5117L28.4375 24.0625L29.8867 20.2002C30.0029 19.8926 30.2969 19.6875 30.625 19.6875C30.9531 19.6875 31.2471 19.8926 31.3633 20.2002L32.8125 24.0625L36.6748 25.5117C36.9824 25.6279 37.1875 25.9219 37.1875 26.25C37.1875 26.5781 36.9824 26.8721 36.6748 26.9883L32.8125 28.4375L31.3633 32.2998C31.2471 32.6074 30.9531 32.8125 30.625 32.8125C30.2969 32.8125 30.0029 32.6074 29.8867 32.2998L28.4375 28.4375L24.5752 26.9883C24.2676 26.8721 24.0625 26.5781 24.0625 26.25C24.0625 25.9219 24.2676 25.6279 24.5752 25.5117Z" fill="#7ABEC1"/>
</svg>
