<svg width="46" height="45" viewBox="0 0 46 45" fill="none" xmlns="http://www.w3.org/2000/svg">
<g clip-path="url(#clip0_2_46)">
<path d="M41.1243 13.3344C41.1529 13.7341 41.1529 14.1339 41.1529 14.5337C41.1529 26.7259 31.8731 40.7741 14.9124 40.7741C9.68716 40.7741 4.83313 39.2607 0.75 36.6339C1.49241 36.7196 2.20617 36.7481 2.97715 36.7481C7.28862 36.7481 11.2576 35.2919 14.427 32.8078C10.3724 32.7221 6.97459 30.0667 5.80389 26.4118C6.375 26.4974 6.94603 26.5546 7.5457 26.5546C8.37372 26.5546 9.20183 26.4403 9.97271 26.2405C5.74685 25.3839 2.57733 21.672 2.57733 17.1891V17.0749C3.80508 17.7602 5.23286 18.1885 6.74607 18.2456C4.26193 16.5894 2.63446 13.7627 2.63446 10.5647C2.63446 8.85155 3.09123 7.28112 3.89077 5.91055C8.43076 11.507 15.255 15.1617 22.9072 15.5616C22.7645 14.8763 22.6788 14.1625 22.6788 13.4487C22.6788 8.36613 26.7905 4.22595 31.9015 4.22595C34.557 4.22595 36.9554 5.33953 38.6401 7.13838C40.7244 6.73866 42.7231 5.96768 44.4935 4.91124C43.8081 7.05278 42.352 8.85164 40.4389 9.99369C42.2949 9.79391 44.0938 9.27984 45.7498 8.56608C44.4937 10.3934 42.9232 12.0209 41.1243 13.3344Z" fill="#55919B"/>
</g>
<defs>
<clipPath id="clip0_2_46">
<rect width="45" height="45" fill="white" transform="translate(0.75)"/>
</clipPath>
</defs>
</svg>
